<svg width="32" height="32" viewBox="0 0 32 32" fill="none" xmlns="http://www.w3.org/2000/svg">
<path d="M8.00065 2.66699H24.0007C24.7079 2.66699 25.3862 2.94794 25.8863 3.44804C26.3864 3.94814 26.6673 4.62642 26.6673 5.33366V26.667C26.6673 27.3742 26.3864 28.0525 25.8863 28.5526C25.3862 29.0527 24.7079 29.3337 24.0007 29.3337H8.00065C7.29341 29.3337 6.61513 29.0527 6.11503 28.5526C5.61494 28.0525 5.33398 27.3742 5.33398 26.667V5.33366C5.33398 4.62642 5.61494 3.94814 6.11503 3.44804C6.61513 2.94794 7.29341 2.66699 8.00065 2.66699ZM9.33398 5.33366C8.98036 5.33366 8.64122 5.47414 8.39118 5.72418C8.14113 5.97423 8.00065 6.31337 8.00065 6.66699C8.00065 7.02061 8.14113 7.35975 8.39118 7.6098C8.64122 7.85985 8.98036 8.00033 9.33398 8.00033C9.68761 8.00033 10.0267 7.85985 10.2768 7.6098C10.5268 7.35975 10.6673 7.02061 10.6673 6.66699C10.6673 6.31337 10.5268 5.97423 10.2768 5.72418C10.0267 5.47414 9.68761 5.33366 9.33398 5.33366ZM13.334 5.33366C12.9804 5.33366 12.6412 5.47414 12.3912 5.72418C12.1411 5.97423 12.0007 6.31337 12.0007 6.66699C12.0007 7.02061 12.1411 7.35975 12.3912 7.6098C12.6412 7.85985 12.9804 8.00033 13.334 8.00033C13.6876 8.00033 14.0267 7.85985 14.2768 7.6098C14.5268 7.35975 14.6673 7.02061 14.6673 6.66699C14.6673 6.31337 14.5268 5.97423 14.2768 5.72418C14.0267 5.47414 13.6876 5.33366 13.334 5.33366ZM16.0007 10.667C13.8789 10.667 11.8441 11.5098 10.3438 13.0101C8.84351 14.5104 8.00065 16.5453 8.00065 18.667C8.00065 20.7887 8.84351 22.8236 10.3438 24.3239C11.8441 25.8241 13.8789 26.667 16.0007 26.667C18.1224 26.667 20.1572 25.8241 21.6575 24.3239C23.1578 22.8236 24.0007 20.7887 24.0007 18.667C24.0007 16.5453 23.1578 14.5104 21.6575 13.0101C20.1572 11.5098 18.1224 10.667 16.0007 10.667ZM10.814 14.0003H13.334C13.014 15.8403 13.334 16.8937 14.1073 17.7203C15.574 19.147 16.214 20.947 15.854 23.3337H13.334C13.654 21.4937 13.334 20.4403 12.5607 19.6137C11.094 18.187 10.4673 16.387 10.814 14.0003ZM16.1473 14.0003H18.6673C18.3473 15.8403 18.6673 16.8937 19.4406 17.7203C20.9073 19.147 21.5473 20.947 21.1873 23.3337H18.6673C18.9873 21.4937 18.6673 20.4403 17.894 19.6137C16.4273 18.187 15.8006 16.387 16.1473 14.0003Z" fill="#181A18"/>
</svg>
