<svg width="40" height="40" viewBox="0 0 40 40" fill="none" xmlns="http://www.w3.org/2000/svg">
<path d="M16.4335 29.9999C16.2049 29.9991 15.979 29.9514 15.7697 29.8596C15.5604 29.7679 15.3722 29.6341 15.2168 29.4665L7.11681 20.8499C6.81402 20.5272 6.65182 20.0974 6.66588 19.6552C6.67995 19.2129 6.86913 18.7943 7.19181 18.4915C7.51449 18.1887 7.94424 18.0265 8.38651 18.0406C8.82878 18.0547 9.24735 18.2438 9.55014 18.5665L16.4168 25.8832L30.4335 10.5499C30.5757 10.3727 30.7527 10.2265 30.9535 10.1203C31.1543 10.014 31.3747 9.94996 31.6011 9.93198C31.8276 9.91401 32.0553 9.94252 32.2704 10.0158C32.4854 10.089 32.6832 10.2055 32.8516 10.3579C33.02 10.5104 33.1555 10.6957 33.2497 10.9024C33.3438 11.1092 33.3948 11.333 33.3993 11.5601C33.4039 11.7872 33.3619 12.0129 33.2761 12.2232C33.1902 12.4335 33.0623 12.6241 32.9001 12.7832L17.6668 29.4499C17.5129 29.6204 17.3253 29.7574 17.116 29.852C16.9066 29.9467 16.6799 29.997 16.4501 29.9999H16.4335Z" fill="black"/>
</svg>
