<svg width="20" height="20" viewBox="0 0 20 20" fill="none" xmlns="http://www.w3.org/2000/svg">
<path d="M8.21674 15.0004C8.10247 15 7.98951 14.9762 7.88486 14.9303C7.7802 14.8844 7.6861 14.8175 7.60841 14.7337L3.5584 10.4254C3.40701 10.2641 3.32591 10.0492 3.33294 9.82806C3.33997 9.60693 3.43456 9.39764 3.5959 9.24625C3.75724 9.09485 3.97212 9.01375 4.19325 9.02078C4.41439 9.02782 4.62368 9.12241 4.77507 9.28375L8.20841 12.9421L15.2167 5.27541C15.2879 5.18685 15.3763 5.11376 15.4767 5.06063C15.5771 5.00751 15.6873 4.97547 15.8006 4.96648C15.9138 4.95749 16.0277 4.97175 16.1352 5.00837C16.2427 5.045 16.3416 5.10321 16.4258 5.17945C16.51 5.25569 16.5777 5.34833 16.6248 5.4517C16.6719 5.55506 16.6974 5.66696 16.6997 5.78053C16.7019 5.89409 16.681 6.00692 16.638 6.11209C16.5951 6.21726 16.5312 6.31254 16.4501 6.39208L8.83341 14.7254C8.75644 14.8107 8.66267 14.8792 8.55798 14.9265C8.45329 14.9738 8.33995 14.999 8.22507 15.0004H8.21674Z" fill="white"/>
</svg>
