<svg width="20" height="20" viewBox="0 0 20 20" fill="none" xmlns="http://www.w3.org/2000/svg">
<path d="M8.21625 15.0004C8.10199 15 7.98902 14.9762 7.88437 14.9303C7.77972 14.8844 7.68562 14.8175 7.60792 14.7337L3.55792 10.4254C3.40652 10.2641 3.32542 10.0492 3.33245 9.82806C3.33949 9.60693 3.43408 9.39764 3.59542 9.24625C3.75676 9.09485 3.97163 9.01375 4.19277 9.02078C4.4139 9.02782 4.62319 9.12241 4.77458 9.28375L8.20792 12.9421L15.2163 5.27541C15.2874 5.18685 15.3758 5.11376 15.4762 5.06063C15.5766 5.00751 15.6868 4.97547 15.8001 4.96648C15.9133 4.95749 16.0272 4.97175 16.1347 5.00837C16.2422 5.045 16.3411 5.10321 16.4253 5.17945C16.5095 5.25569 16.5772 5.34833 16.6243 5.4517C16.6714 5.55506 16.6969 5.66696 16.6992 5.78053C16.7014 5.89409 16.6805 6.00692 16.6376 6.11209C16.5946 6.21726 16.5307 6.31254 16.4496 6.39208L8.83292 14.7254C8.75595 14.8107 8.66218 14.8792 8.55749 14.9265C8.4528 14.9738 8.33946 14.999 8.22458 15.0004H8.21625Z" fill="#181A18"/>
</svg>
