<svg width="32" height="32" viewBox="0 0 32 32" fill="none" xmlns="http://www.w3.org/2000/svg">
<path d="M16.6673 4C10.414 4 5.33398 7.58667 5.33398 12C5.33398 13.5867 6.00065 15.12 7.25398 16.44C6.0136 18.0283 5.338 19.9847 5.33398 22V26.6667C5.33398 28.1467 6.52065 29.3333 8.00065 29.3333H25.334C26.814 29.3333 28.0007 28.1467 28.0007 26.6667V22C28.0007 20.3733 27.5473 18.76 26.6673 17.3333L29.334 14.6667L25.334 10.6667L22.534 13.4667C20.7308 12.4975 18.7144 11.9934 16.6673 12C14.2007 12 11.934 12.7067 10.0673 13.88C9.58732 13.2933 9.33398 12.6667 9.33398 12C9.33398 9.61333 12.614 7.66667 16.6673 7.66667C18.574 7.66667 20.4007 8.10667 21.774 8.89333L24.4673 6.2C22.3607 4.78667 19.574 4 16.6673 4ZM16.6673 14.6667C17.1207 14.6667 17.5607 14.72 18.0007 14.7867C13.854 15.4267 10.6673 19 10.6673 23.3333V26.6667H8.00065V23.3333C8.00065 21.0348 8.91374 18.8304 10.5391 17.2051C12.1644 15.5798 14.3688 14.6667 16.6673 14.6667Z" fill="#181A18"/>
</svg>
