<svg width="40" height="40" viewBox="0 0 40 40" fill="none" xmlns="http://www.w3.org/2000/svg">
<path d="M31.6663 6.66699H8.33301C7.00693 6.66699 5.73516 7.19378 4.79747 8.13146C3.85979 9.06914 3.33301 10.3409 3.33301 11.667V28.3337C3.33301 29.6597 3.85979 30.9315 4.79747 31.8692C5.73516 32.8069 7.00693 33.3337 8.33301 33.3337H31.6663C32.9924 33.3337 34.2642 32.8069 35.2019 31.8692C36.1396 30.9315 36.6663 29.6597 36.6663 28.3337V11.667C36.6663 10.3409 36.1396 9.06914 35.2019 8.13146C34.2642 7.19378 32.9924 6.66699 31.6663 6.66699ZM31.6663 10.0003L20.833 17.4503C20.5796 17.5966 20.2922 17.6736 19.9997 17.6736C19.7071 17.6736 19.4197 17.5966 19.1663 17.4503L8.33301 10.0003H31.6663Z" fill="#181A18"/>
</svg>
