<svg width="20" height="20" viewBox="0 0 20 20" fill="none" xmlns="http://www.w3.org/2000/svg">
<path d="M10 14.1665C9.78725 14.1654 9.57742 14.117 9.38571 14.0248C9.19401 13.9325 9.02524 13.7987 8.89166 13.6332L5.38333 9.38317C5.17833 9.12731 5.04932 8.81901 5.01101 8.49339C4.9727 8.16778 5.02664 7.83796 5.16666 7.5415C5.28023 7.28386 5.46556 7.06435 5.70051 6.90919C5.93547 6.75403 6.21012 6.66978 6.49166 6.6665H13.5083C13.7899 6.66978 14.0645 6.75403 14.2995 6.90919C14.5344 7.06435 14.7198 7.28386 14.8333 7.5415C14.9734 7.83796 15.0273 8.16778 14.989 8.49339C14.9507 8.81901 14.8217 9.12731 14.6167 9.38317L11.1083 13.6332C10.9747 13.7987 10.806 13.9325 10.6143 14.0248C10.4226 14.117 10.2127 14.1654 10 14.1665Z" fill="#49735A"/>
</svg>
