<svg width="32" height="32" viewBox="0 0 32 32" fill="none" xmlns="http://www.w3.org/2000/svg">
<path d="M13.3327 4.00024V6.66691C16.666 6.66691 18.5327 6.73357 19.626 7.21357C20.346 7.53357 20.9727 8.28024 21.666 9.33357H6.66602V12.0002H26.1594L25.186 10.0669C23.8127 7.33357 22.6127 5.62691 20.706 4.78691C18.7993 3.93357 16.666 4.00024 13.3327 4.00024ZM7.99935 14.6669C5.03935 14.6669 2.66602 17.0402 2.66602 20.0002V24.0002C2.66602 26.9602 5.03935 29.3336 7.99935 29.3336H23.9993C26.9594 29.3336 29.3327 26.9602 29.3327 24.0002V20.0002C29.3327 17.0402 26.9594 14.6669 23.9993 14.6669H7.99935Z" fill="#181A18"/>
</svg>
