<svg width="40" height="40" viewBox="0 0 40 40" fill="none" xmlns="http://www.w3.org/2000/svg">
<path d="M35.7829 19.2995L25.0829 8.61618C24.8103 8.34204 24.4509 8.17118 24.0662 8.13285L8.48285 6.66618C8.23874 6.64373 7.99268 6.67541 7.76221 6.75895C7.53174 6.8425 7.32254 6.97585 7.14952 7.14952C6.97585 7.32254 6.8425 7.53174 6.75895 7.76221C6.67541 7.99268 6.64373 8.23874 6.66618 8.48285L8.13285 24.0662C8.17118 24.4509 8.34204 24.8103 8.61618 25.0829L19.2995 35.7829C19.8725 36.348 20.6447 36.6653 21.4495 36.6662C22.2493 36.6645 23.016 36.347 23.5828 35.7829L35.7829 23.5828C36.3497 23.0143 36.6681 22.2441 36.6681 21.4412C36.6681 20.6383 36.3497 19.8681 35.7829 19.2995ZM19.2662 19.2995C18.9167 19.6495 18.4712 19.8879 17.9862 19.9846C17.5012 20.0813 16.9983 20.032 16.5413 19.8428C16.0843 19.6537 15.6937 19.3333 15.4189 18.9221C15.144 18.5109 14.9973 18.0274 14.9973 17.5329C14.9973 17.0383 15.144 16.5548 15.4189 16.1436C15.6937 15.7324 16.0843 15.412 16.5413 15.2229C16.9983 15.0337 17.5012 14.9844 17.9862 15.0811C18.4712 15.1778 18.9167 15.4162 19.2662 15.7662C19.7283 16.2314 19.9876 16.8605 19.9876 17.5162C19.9876 18.1719 19.7283 18.801 19.2662 19.2662V19.2995Z" fill="#181A18"/>
</svg>
