<svg width="20" height="20" viewBox="0 0 20 20" fill="none" xmlns="http://www.w3.org/2000/svg">
<path d="M3.75033 9.99967C4.90092 9.99967 5.83366 9.06693 5.83366 7.91634C5.83366 6.76575 4.90092 5.83301 3.75033 5.83301C2.59973 5.83301 1.66699 6.76575 1.66699 7.91634C1.66699 9.06693 2.59973 9.99967 3.75033 9.99967Z" fill="black"/>
<path d="M7.50033 6.66667C8.65092 6.66667 9.58366 5.73393 9.58366 4.58333C9.58366 3.43274 8.65092 2.5 7.50033 2.5C6.34973 2.5 5.41699 3.43274 5.41699 4.58333C5.41699 5.73393 6.34973 6.66667 7.50033 6.66667Z" fill="black"/>
<path d="M12.5003 6.66667C13.6509 6.66667 14.5837 5.73393 14.5837 4.58333C14.5837 3.43274 13.6509 2.5 12.5003 2.5C11.3497 2.5 10.417 3.43274 10.417 4.58333C10.417 5.73393 11.3497 6.66667 12.5003 6.66667Z" fill="black"/>
<path d="M16.2503 9.99967C17.4009 9.99967 18.3337 9.06693 18.3337 7.91634C18.3337 6.76575 17.4009 5.83301 16.2503 5.83301C15.0997 5.83301 14.167 6.76575 14.167 7.91634C14.167 9.06693 15.0997 9.99967 16.2503 9.99967Z" fill="black"/>
<path d="M14.4502 12.3833C13.7252 11.5333 13.1169 10.8083 12.3835 9.95833C12.0002 9.50833 11.5085 9.05833 10.9252 8.85833C10.8335 8.825 10.7419 8.8 10.6502 8.78333C10.4419 8.75 10.2169 8.75 10.0002 8.75C9.78354 8.75 9.55854 8.75 9.34187 8.79167C9.2502 8.80833 9.15854 8.83333 9.06687 8.86667C8.48353 9.06667 8.0002 9.51667 7.60853 9.96667C6.88353 10.8167 6.2752 11.5417 5.54187 12.3917C4.4502 13.4833 3.10853 14.6917 3.35853 16.3833C3.6002 17.2333 4.20853 18.075 5.3002 18.3167C5.90853 18.4417 7.8502 17.95 9.91687 17.95H10.0669C12.1335 17.95 14.0752 18.4333 14.6835 18.3167C15.7752 18.075 16.3835 17.225 16.6252 16.3833C16.8835 14.6833 15.5419 13.475 14.4502 12.3833Z" fill="black"/>
</svg>
