<svg width="40" height="40" viewBox="0 0 40 40" fill="none" xmlns="http://www.w3.org/2000/svg">
<path d="M20.0007 26.6663C20.9211 26.6663 21.6673 25.9201 21.6673 24.9997C21.6673 24.0792 20.9211 23.333 20.0007 23.333C19.0802 23.333 18.334 24.0792 18.334 24.9997C18.334 25.9201 19.0802 26.6663 20.0007 26.6663Z" fill="#181A18"/>
<path d="M28.3337 13.3333H26.667V10.1833C26.667 8.41516 25.9646 6.71947 24.7144 5.46922C23.4641 4.21898 21.7684 3.5166 20.0003 3.5166C18.2322 3.5166 16.5365 4.21898 15.2863 5.46922C14.036 6.71947 13.3337 8.41516 13.3337 10.1833V13.3333H11.667C10.3409 13.3333 9.06914 13.8601 8.13146 14.7977C7.19378 15.7354 6.66699 17.0072 6.66699 18.3333V31.6666C6.66699 32.9927 7.19378 34.2645 8.13146 35.2021C9.06914 36.1398 10.3409 36.6666 11.667 36.6666H28.3337C29.6597 36.6666 30.9315 36.1398 31.8692 35.2021C32.8069 34.2645 33.3337 32.9927 33.3337 31.6666V18.3333C33.3337 17.0072 32.8069 15.7354 31.8692 14.7977C30.9315 13.8601 29.6597 13.3333 28.3337 13.3333ZM16.667 10.1833C16.6446 9.27543 16.9827 8.39568 17.6075 7.7366C18.2322 7.07751 19.0926 6.69278 20.0003 6.6666C20.9081 6.69278 21.7685 7.07751 22.3932 7.7366C23.0179 8.39568 23.3561 9.27543 23.3337 10.1833V13.3333H16.667V10.1833ZM20.0003 29.9999C19.0114 29.9999 18.0447 29.7067 17.2225 29.1573C16.4002 28.6079 15.7594 27.827 15.3809 26.9134C15.0025 25.9997 14.9035 24.9944 15.0964 24.0245C15.2893 23.0546 15.7655 22.1637 16.4648 21.4644C17.1641 20.7651 18.055 20.2889 19.0249 20.096C19.9948 19.9031 21.0001 20.0021 21.9137 20.3805C22.8274 20.759 23.6083 21.3998 24.1577 22.2221C24.7071 23.0443 25.0003 24.011 25.0003 24.9999C25.0003 26.326 24.4735 27.5978 23.5359 28.5355C22.5982 29.4732 21.3264 29.9999 20.0003 29.9999Z" fill="#181A18"/>
</svg>
