<svg width="40" height="40" viewBox="0 0 40 40" fill="none" xmlns="http://www.w3.org/2000/svg">
<path d="M19.9997 9.99967C20.4417 9.99967 20.8656 9.82408 21.1782 9.51152C21.4907 9.19896 21.6663 8.77504 21.6663 8.33301V4.99967C21.6663 4.55765 21.4907 4.13372 21.1782 3.82116C20.8656 3.5086 20.4417 3.33301 19.9997 3.33301C19.5576 3.33301 19.1337 3.5086 18.8212 3.82116C18.5086 4.13372 18.333 4.55765 18.333 4.99967V8.33301C18.333 8.77504 18.5086 9.19896 18.8212 9.51152C19.1337 9.82408 19.5576 9.99967 19.9997 9.99967ZM34.9997 18.333H31.6663C31.2243 18.333 30.8004 18.5086 30.4878 18.8212C30.1753 19.1337 29.9997 19.5576 29.9997 19.9997C29.9997 20.4417 30.1753 20.8656 30.4878 21.1782C30.8004 21.4907 31.2243 21.6663 31.6663 21.6663H34.9997C35.4417 21.6663 35.8656 21.4907 36.1782 21.1782C36.4907 20.8656 36.6663 20.4417 36.6663 19.9997C36.6663 19.5576 36.4907 19.1337 36.1782 18.8212C35.8656 18.5086 35.4417 18.333 34.9997 18.333ZM9.99967 19.9997C9.99967 19.5576 9.82408 19.1337 9.51152 18.8212C9.19896 18.5086 8.77504 18.333 8.33301 18.333H4.99967C4.55765 18.333 4.13372 18.5086 3.82116 18.8212C3.5086 19.1337 3.33301 19.5576 3.33301 19.9997C3.33301 20.4417 3.5086 20.8656 3.82116 21.1782C4.13372 21.4907 4.55765 21.6663 4.99967 21.6663H8.33301C8.77504 21.6663 9.19896 21.4907 9.51152 21.1782C9.82408 20.8656 9.99967 20.4417 9.99967 19.9997ZM10.3663 8.33301C10.0415 8.0258 9.60783 7.86023 9.16087 7.87274C8.71391 7.88524 8.29022 8.07478 7.98301 8.39967C7.6758 8.72457 7.51023 9.15819 7.52274 9.60515C7.53524 10.0521 7.72478 10.4758 8.04967 10.783L10.4497 13.0997C10.6107 13.2552 10.8015 13.3767 11.0105 13.4568C11.2195 13.537 11.4426 13.5743 11.6663 13.5663C11.8908 13.5655 12.1129 13.5193 12.3191 13.4305C12.5253 13.3417 12.7114 13.2122 12.8663 13.0497C13.1768 12.7374 13.351 12.315 13.351 11.8747C13.351 11.4344 13.1768 11.0119 12.8663 10.6997L10.3663 8.33301ZM28.333 13.5663C28.7621 13.5646 29.174 13.3975 29.483 13.0997L31.883 10.783C32.1758 10.4771 32.3411 10.0712 32.3455 9.64779C32.3499 9.22437 32.1929 8.81517 31.9065 8.50329C31.6201 8.19141 31.2257 8.00025 30.8034 7.96862C30.3812 7.93699 29.9627 8.06728 29.633 8.33301L27.233 10.6997C26.9226 11.0119 26.7484 11.4344 26.7484 11.8747C26.7484 12.315 26.9226 12.7374 27.233 13.0497C27.5216 13.3542 27.9144 13.5387 28.333 13.5663ZM19.9997 29.9997C19.5576 29.9997 19.1337 30.1753 18.8212 30.4878C18.5086 30.8004 18.333 31.2243 18.333 31.6663V34.9997C18.333 35.4417 18.5086 35.8656 18.8212 36.1782C19.1337 36.4907 19.5576 36.6663 19.9997 36.6663C20.4417 36.6663 20.8656 36.4907 21.1782 36.1782C21.4907 35.8656 21.6663 35.4417 21.6663 34.9997V31.6663C21.6663 31.2243 21.4907 30.8004 21.1782 30.4878C20.8656 30.1753 20.4417 29.9997 19.9997 29.9997ZM29.5497 26.8997C29.2314 26.5925 28.8042 26.4243 28.3619 26.4321C27.9196 26.4399 27.4986 26.6231 27.1913 26.9413C26.8841 27.2596 26.7159 27.6869 26.7238 28.1291C26.7316 28.5714 26.9147 28.9925 27.233 29.2997L29.633 31.6663C29.942 31.9641 30.3539 32.1313 30.783 32.133C31.0063 32.1343 31.2276 32.0907 31.4338 32.0048C31.6399 31.9189 31.8267 31.7925 31.983 31.633C32.1392 31.4781 32.2632 31.2937 32.3478 31.0906C32.4324 30.8875 32.476 30.6697 32.476 30.4497C32.476 30.2297 32.4324 30.0118 32.3478 29.8087C32.2632 29.6056 32.1392 29.4213 31.983 29.2663L29.5497 26.8997ZM10.4497 26.8997L8.04967 29.2163C7.89346 29.3713 7.76947 29.5556 7.68486 29.7587C7.60024 29.9618 7.55668 30.1797 7.55668 30.3997C7.55668 30.6197 7.60024 30.8375 7.68486 31.0406C7.76947 31.2437 7.89346 31.4281 8.04967 31.583C8.206 31.7425 8.39277 31.8689 8.59891 31.9548C8.80506 32.0407 9.02636 32.0843 9.24968 32.083C9.66053 32.0865 10.0582 31.9381 10.3663 31.6663L12.7663 29.3497C13.0846 29.0425 13.2678 28.6214 13.2756 28.1791C13.2834 27.7369 13.1152 27.3096 12.808 26.9913C12.5008 26.6731 12.0797 26.4899 11.6375 26.4821C11.1952 26.4743 10.7679 26.6425 10.4497 26.9497V26.8997ZM19.9997 13.333C18.6811 13.333 17.3922 13.724 16.2959 14.4565C15.1995 15.1891 14.3451 16.2303 13.8405 17.4485C13.3359 18.6666 13.2039 20.0071 13.4611 21.3003C13.7183 22.5935 14.3533 23.7814 15.2856 24.7137C16.218 25.6461 17.4059 26.281 18.6991 26.5382C19.9923 26.7955 21.3327 26.6635 22.5509 26.1589C23.7691 25.6543 24.8103 24.7998 25.5428 23.7035C26.2753 22.6071 26.6663 21.3182 26.6663 19.9997C26.6663 18.2316 25.964 16.5359 24.7137 15.2856C23.4635 14.0354 21.7678 13.333 19.9997 13.333Z" fill="#181A18"/>
</svg>
