<svg width="32" height="32" viewBox="0 0 32 32" fill="none" xmlns="http://www.w3.org/2000/svg">
<path d="M24.0007 8.00033V5.33366H26.6673V2.66699H8.00065C6.53398 2.66699 5.33398 3.86699 5.33398 5.33366V26.667C5.33398 28.1337 6.53398 29.3337 8.00065 29.3337H26.6673V26.667H21.294C22.132 26.0527 22.8136 25.2499 23.2838 24.3233C23.754 23.3968 23.9996 22.3727 24.0007 21.3337V14.667H10.6673V21.3337C10.6673 23.5203 11.7473 25.4537 13.374 26.667H8.00065V5.33366H10.6673V8.00033C10.6673 8.73366 11.2673 9.33366 12.0007 9.33366H22.6673C23.4007 9.33366 24.0007 8.73366 24.0007 8.00033ZM17.334 10.667C18.0673 10.667 18.6673 11.267 18.6673 12.0003C18.6673 12.7337 18.0673 13.3337 17.334 13.3337C16.6007 13.3337 16.0007 12.7337 16.0007 12.0003C16.0007 11.267 16.6007 10.667 17.334 10.667Z" fill="#181A18"/>
</svg>
