<svg width="20" height="20" viewBox="0 0 20 20" fill="none" xmlns="http://www.w3.org/2000/svg">
<path d="M15 3.33366H14.1667V2.50033C14.1667 2.27931 14.0789 2.06735 13.9226 1.91107C13.7663 1.75479 13.5543 1.66699 13.3333 1.66699C13.1123 1.66699 12.9004 1.75479 12.7441 1.91107C12.5878 2.06735 12.5 2.27931 12.5 2.50033V3.33366H7.5V2.50033C7.5 2.27931 7.4122 2.06735 7.25592 1.91107C7.09964 1.75479 6.88768 1.66699 6.66667 1.66699C6.44565 1.66699 6.23369 1.75479 6.07741 1.91107C5.92113 2.06735 5.83333 2.27931 5.83333 2.50033V3.33366H5C4.33696 3.33366 3.70107 3.59705 3.23223 4.06589C2.76339 4.53473 2.5 5.17062 2.5 5.83366V15.8337C2.5 16.4967 2.76339 17.1326 3.23223 17.6014C3.70107 18.0703 4.33696 18.3337 5 18.3337H15C15.663 18.3337 16.2989 18.0703 16.7678 17.6014C17.2366 17.1326 17.5 16.4967 17.5 15.8337V5.83366C17.5 5.17062 17.2366 4.53473 16.7678 4.06589C16.2989 3.59705 15.663 3.33366 15 3.33366ZM6.66667 14.167C6.50185 14.167 6.34073 14.1181 6.20369 14.0266C6.06665 13.935 5.95984 13.8048 5.89677 13.6526C5.83369 13.5003 5.81719 13.3327 5.84935 13.1711C5.8815 13.0094 5.96087 12.8609 6.07741 12.7444C6.19395 12.6279 6.34244 12.5485 6.50409 12.5163C6.66574 12.4842 6.8333 12.5007 6.98557 12.5638C7.13784 12.6268 7.26799 12.7336 7.35956 12.8707C7.45113 13.0077 7.5 13.1688 7.5 13.3337C7.5 13.5547 7.4122 13.7666 7.25592 13.9229C7.09964 14.0792 6.88768 14.167 6.66667 14.167ZM13.3333 14.167H10C9.77899 14.167 9.56702 14.0792 9.41074 13.9229C9.25446 13.7666 9.16667 13.5547 9.16667 13.3337C9.16667 13.1126 9.25446 12.9007 9.41074 12.7444C9.56702 12.5881 9.77899 12.5003 10 12.5003H13.3333C13.5543 12.5003 13.7663 12.5881 13.9226 12.7444C14.0789 12.9007 14.1667 13.1126 14.1667 13.3337C14.1667 13.5547 14.0789 13.7666 13.9226 13.9229C13.7663 14.0792 13.5543 14.167 13.3333 14.167ZM15.8333 9.16699H4.16667V5.83366C4.16667 5.61265 4.25446 5.40068 4.41074 5.2444C4.56702 5.08812 4.77899 5.00033 5 5.00033H5.83333V5.83366C5.83333 6.05467 5.92113 6.26663 6.07741 6.42291C6.23369 6.5792 6.44565 6.66699 6.66667 6.66699C6.88768 6.66699 7.09964 6.5792 7.25592 6.42291C7.4122 6.26663 7.5 6.05467 7.5 5.83366V5.00033H12.5V5.83366C12.5 6.05467 12.5878 6.26663 12.7441 6.42291C12.9004 6.5792 13.1123 6.66699 13.3333 6.66699C13.5543 6.66699 13.7663 6.5792 13.9226 6.42291C14.0789 6.26663 14.1667 6.05467 14.1667 5.83366V5.00033H15C15.221 5.00033 15.433 5.08812 15.5893 5.2444C15.7455 5.40068 15.8333 5.61265 15.8333 5.83366V9.16699Z" fill="#181A18"/>
</svg>
