<svg width="20" height="20" viewBox="0 0 20 20" fill="none" xmlns="http://www.w3.org/2000/svg">
<path d="M10.0001 18.208C9.70886 18.2126 9.42154 18.1407 9.16673 17.9997L8.91673 17.858C6.96946 16.7563 5.34945 15.1575 4.22213 13.225C3.09481 11.2924 2.50056 9.09532 2.50007 6.85799V6.74133C2.49743 6.44623 2.57318 6.15573 2.71959 5.89951C2.86601 5.64329 3.07783 5.43053 3.3334 5.28299L9.16673 1.99966C9.4201 1.85338 9.70751 1.77637 10.0001 1.77637C10.2926 1.77637 10.58 1.85338 10.8334 1.99966L16.6667 5.28299C16.9223 5.43053 17.1341 5.64329 17.2805 5.89951C17.427 6.15573 17.5027 6.44623 17.5001 6.74133V6.85799C17.4979 9.09696 16.9011 11.2952 15.7708 13.2279C14.6405 15.1606 13.0171 16.7584 11.0667 17.858L10.8167 17.9997C10.5669 18.1379 10.2856 18.2097 10.0001 18.208Z" fill="black"/>
</svg>
