<svg width="32" height="32" viewBox="0 0 32 32" fill="none" xmlns="http://www.w3.org/2000/svg">
<path d="M20.1999 11.1993C19.178 11.1958 18.1654 11.3938 17.2201 11.782C16.2748 12.1703 15.4153 12.7411 14.6908 13.4619C13.9663 14.1826 13.3911 15.0392 12.998 15.9825C12.6049 16.9258 12.4016 17.9373 12.3999 18.9593V26.7993C12.3999 27.1175 12.5263 27.4227 12.7514 27.6478C12.9764 27.8728 13.2816 27.9993 13.5999 27.9993H16.3999C16.7182 27.9993 17.0234 27.8728 17.2484 27.6478C17.4735 27.4227 17.5999 27.1175 17.5999 26.7993V18.9593C17.5996 18.5958 17.676 18.2364 17.8239 17.9044C17.9719 17.5724 18.1882 17.2753 18.4587 17.0325C18.7291 16.7897 19.0477 16.6067 19.3937 16.4952C19.7397 16.3838 20.1052 16.3466 20.4666 16.3859C21.1146 16.4676 21.7101 16.7842 22.1402 17.2757C22.5703 17.7672 22.805 18.3995 22.7999 19.0526V26.7993C22.7999 27.1175 22.9263 27.4227 23.1514 27.6478C23.3764 27.8728 23.6816 27.9993 23.9999 27.9993H26.7999C27.1182 27.9993 27.4234 27.8728 27.6484 27.6478C27.8735 27.4227 27.9999 27.1175 27.9999 26.7993V18.9593C27.9982 17.9373 27.7949 16.9258 27.4018 15.9825C27.0087 15.0392 26.4335 14.1826 25.709 13.4619C24.9845 12.7411 24.1251 12.1703 23.1797 11.782C22.2344 11.3938 21.2218 11.1958 20.1999 11.1993Z" fill="#064749"/>
<path d="M8.8 12.4004H5.2C4.53726 12.4004 4 12.9376 4 13.6004V26.8004C4 27.4631 4.53726 28.0004 5.2 28.0004H8.8C9.46274 28.0004 10 27.4631 10 26.8004V13.6004C10 12.9376 9.46274 12.4004 8.8 12.4004Z" fill="#064749"/>
<path d="M7 10C8.65685 10 10 8.65685 10 7C10 5.34315 8.65685 4 7 4C5.34315 4 4 5.34315 4 7C4 8.65685 5.34315 10 7 10Z" fill="#064749"/>
</svg>
