<svg width="20" height="20" viewBox="0 0 20 20" fill="none" xmlns="http://www.w3.org/2000/svg">
<path d="M10.0003 1.66699C8.35215 1.66699 6.74099 2.15573 5.37058 3.07141C4.00017 3.98709 2.93206 5.28858 2.30133 6.8113C1.6706 8.33401 1.50558 10.0096 1.82712 11.6261C2.14866 13.2426 2.94234 14.7274 4.10777 15.8929C5.27321 17.0583 6.75807 17.852 8.37458 18.1735C9.99109 18.4951 11.6666 18.3301 13.1894 17.6993C14.7121 17.0686 16.0136 16.0005 16.9292 14.6301C17.8449 13.2597 18.3337 11.6485 18.3337 10.0003C18.3337 8.90598 18.1181 7.82234 17.6993 6.8113C17.2805 5.80025 16.6667 4.88159 15.8929 4.10777C15.1191 3.33395 14.2004 2.72012 13.1894 2.30133C12.1783 1.88254 11.0947 1.66699 10.0003 1.66699ZM13.3337 10.8337H10.0003C9.77932 10.8337 9.56735 10.7459 9.41107 10.5896C9.25479 10.4333 9.167 10.2213 9.167 10.0003V6.66699C9.167 6.44598 9.25479 6.23402 9.41107 6.07774C9.56735 5.92146 9.77932 5.83366 10.0003 5.83366C10.2213 5.83366 10.4333 5.92146 10.5896 6.07774C10.7459 6.23402 10.8337 6.44598 10.8337 6.66699V9.16699H13.3337C13.5547 9.16699 13.7666 9.25479 13.9229 9.41107C14.0792 9.56735 14.167 9.77931 14.167 10.0003C14.167 10.2213 14.0792 10.4333 13.9229 10.5896C13.7666 10.7459 13.5547 10.8337 13.3337 10.8337Z" fill="black"/>
</svg>
