<svg width="32" height="32" viewBox="0 0 32 32" fill="none" xmlns="http://www.w3.org/2000/svg">
<g clip-path="url(#clip0_229_1141)">
<path d="M16 4C9.94667 4 4.45333 6.37334 0.386667 10.2267C0.146667 10.4667 0 10.8 0 11.1733C0 11.5467 0.146667 11.88 0.386667 12.12L3.69333 15.4267C3.94308 15.6736 4.27942 15.8132 4.63062 15.8157C4.98183 15.8182 5.32011 15.6834 5.57333 15.44C6.62667 14.4533 7.82667 13.6267 9.12 12.9733C9.56 12.76 9.86667 12.3067 9.86667 11.7733V7.64C11.8 7 13.8533 6.66667 16 6.66667C18.12 6.66667 20.1867 7 22.12 7.62667V11.76C22.12 12.28 22.4267 12.7467 22.8667 12.96C24.1733 13.6133 25.3333 14.4533 26.4267 15.4267C26.6667 15.6667 27 15.8 27.3333 15.8C27.7333 15.8 28.0667 15.6533 28.3067 15.4133L31.6133 12.1067C31.8533 11.8667 32 11.5333 32 11.16C32 10.7867 31.84 10.4667 31.6 10.2267C27.3919 6.22582 21.8064 3.99641 16 4ZM12 9.33334V13.3333C12 13.3333 4 20 4 24V29.3333H28V24C28 20 20 13.3333 20 13.3333V9.33334H17.3333V12H14.6667V9.33334H12ZM16 16C17.4145 16 18.771 16.5619 19.7712 17.5621C20.7714 18.5623 21.3333 19.9188 21.3333 21.3333C21.3333 22.7478 20.7714 24.1044 19.7712 25.1046C18.771 26.1048 17.4145 26.6667 16 26.6667C14.5855 26.6667 13.229 26.1048 12.2288 25.1046C11.2286 24.1044 10.6667 22.7478 10.6667 21.3333C10.6667 19.9188 11.2286 18.5623 12.2288 17.5621C13.229 16.5619 14.5855 16 16 16ZM16 18C15.1159 18 14.2681 18.3512 13.643 18.9763C13.0179 19.6014 12.6667 20.4493 12.6667 21.3333C12.6667 22.2174 13.0179 23.0652 13.643 23.6904C14.2681 24.3155 15.1159 24.6667 16 24.6667C16.8841 24.6667 17.7319 24.3155 18.357 23.6904C18.9821 23.0652 19.3333 22.2174 19.3333 21.3333C19.3333 20.4493 18.9821 19.6014 18.357 18.9763C17.7319 18.3512 16.8841 18 16 18Z" fill="#181A18"/>
</g>
<defs>
<clipPath id="clip0_229_1141">
<rect width="32" height="32" fill="white"/>
</clipPath>
</defs>
</svg>
