<svg width="32" height="32" viewBox="0 0 32 32" fill="none" xmlns="http://www.w3.org/2000/svg">
<path d="M9.33268 2.66699H22.666C23.3733 2.66699 24.0515 2.94794 24.5516 3.44804C25.0517 3.94814 25.3327 4.62642 25.3327 5.33366V12.0003H6.66602V5.33366C6.66602 4.62642 6.94697 3.94814 7.44706 3.44804C7.94716 2.94794 8.62544 2.66699 9.33268 2.66699ZM25.3327 25.3337C25.3327 26.0409 25.0517 26.7192 24.5516 27.2193C24.0515 27.7194 23.3733 28.0003 22.666 28.0003V29.3337H19.9993V28.0003H11.9993V29.3337H9.33268V28.0003C8.62544 28.0003 7.94716 27.7194 7.44706 27.2193C6.94697 26.7192 6.66602 26.0409 6.66602 25.3337V13.3337H25.3327V25.3337ZM10.666 6.66699V9.33366H13.3327V6.66699H10.666ZM10.666 16.0003V20.0003H13.3327V16.0003H10.666Z" fill="#181A18"/>
</svg>
