<svg width="22" height="22" viewBox="0 0 22 22" fill="none" xmlns="http://www.w3.org/2000/svg">
<path d="M7.79168 17.4163H7.33334C3.66668 17.4163 1.83334 16.4997 1.83334 11.9163V7.33301C1.83334 3.66634 3.66668 1.83301 7.33334 1.83301H14.6667C18.3333 1.83301 20.1667 3.66634 20.1667 7.33301V11.9163C20.1667 15.583 18.3333 17.4163 14.6667 17.4163H14.2083C13.9242 17.4163 13.6492 17.5538 13.475 17.783L12.1 19.6163C11.495 20.423 10.505 20.423 9.90001 19.6163L8.52501 17.783C8.37834 17.5813 8.03918 17.4163 7.79168 17.4163Z" stroke="#7D7F88" stroke-width="1.375" stroke-miterlimit="10" stroke-linecap="round" stroke-linejoin="round"/>
<path d="M6.41666 7.33301H15.5833" stroke="#7D7F88" stroke-width="1.375" stroke-linecap="round" stroke-linejoin="round"/>
<path d="M6.41666 11.917H11.9167" stroke="#7D7F88" stroke-width="1.375" stroke-linecap="round" stroke-linejoin="round"/>
</svg>
