<svg width="23" height="19" viewBox="0 0 23 19" fill="none" xmlns="http://www.w3.org/2000/svg">
<path fill-rule="evenodd" clip-rule="evenodd" d="M22 0H1C0.447715 0 0 0.447715 0 1V2C0 2.55228 0.447715 3 1 3H22C22.5523 3 23 2.55228 23 2V1C23 0.447715 22.5523 0 22 0ZM22 8H1C0.447715 8 0 8.44771 0 9V10C0 10.5523 0.447715 11 1 11H22C22.5523 11 23 10.5523 23 10V9C23 8.44771 22.5523 8 22 8ZM1 16H22C22.5523 16 23 16.4477 23 17V18C23 18.5523 22.5523 19 22 19H1C0.447715 19 0 18.5523 0 18V17C0 16.4477 0.447715 16 1 16Z" fill="#111111"/>
</svg>
