<svg width="20" height="20" viewBox="0 0 20 20" fill="none" xmlns="http://www.w3.org/2000/svg">
<path d="M10.0003 1.66699C8.35215 1.66699 6.74099 2.15573 5.37058 3.07141C4.00017 3.98709 2.93206 5.28858 2.30133 6.8113C1.6706 8.33401 1.50558 10.0096 1.82712 11.6261C2.14866 13.2426 2.94234 14.7274 4.10777 15.8929C5.27321 17.0583 6.75807 17.852 8.37458 18.1735C9.99109 18.4951 11.6666 18.3301 13.1894 17.6993C14.7121 17.0686 16.0136 16.0005 16.9292 14.6301C17.8449 13.2597 18.3337 11.6485 18.3337 10.0003C18.3337 8.90598 18.1181 7.82234 17.6993 6.8113C17.2805 5.80025 16.6667 4.88159 15.8929 4.10777C15.1191 3.33395 14.2004 2.72012 13.1894 2.30133C12.1783 1.88254 11.0947 1.66699 10.0003 1.66699ZM12.2587 11.0753C12.3368 11.1528 12.3988 11.245 12.4411 11.3465C12.4834 11.4481 12.5052 11.557 12.5052 11.667C12.5052 11.777 12.4834 11.8859 12.4411 11.9875C12.3988 12.089 12.3368 12.1812 12.2587 12.2587C12.1812 12.3368 12.089 12.3988 11.9875 12.4411C11.8859 12.4834 11.777 12.5052 11.667 12.5052C11.557 12.5052 11.4481 12.4834 11.3465 12.4411C11.245 12.3988 11.1528 12.3368 11.0753 12.2587L10.0003 11.1753L8.92533 12.2587C8.84786 12.3368 8.75569 12.3988 8.65414 12.4411C8.55259 12.4834 8.44367 12.5052 8.33366 12.5052C8.22365 12.5052 8.11473 12.4834 8.01318 12.4411C7.91163 12.3988 7.81946 12.3368 7.742 12.2587C7.66389 12.1812 7.60189 12.089 7.55959 11.9875C7.51728 11.8859 7.4955 11.777 7.4955 11.667C7.4955 11.557 7.51728 11.4481 7.55959 11.3465C7.60189 11.245 7.66389 11.1528 7.742 11.0753L8.82533 10.0003L7.742 8.92533C7.58508 8.76841 7.49692 8.55558 7.49692 8.33366C7.49692 8.11174 7.58508 7.89891 7.742 7.74199C7.89892 7.58507 8.11174 7.49692 8.33366 7.49692C8.55558 7.49692 8.76841 7.58507 8.92533 7.74199L10.0003 8.82533L11.0753 7.74199C11.2322 7.58507 11.4451 7.49692 11.667 7.49692C11.8889 7.49692 12.1017 7.58507 12.2587 7.74199C12.4156 7.89891 12.5037 8.11174 12.5037 8.33366C12.5037 8.55558 12.4156 8.76841 12.2587 8.92533L11.1753 10.0003L12.2587 11.0753Z" fill="black"/>
</svg>
