<svg width="40" height="40" viewBox="0 0 40 40" fill="none" xmlns="http://www.w3.org/2000/svg">
<path d="M11.6663 35H28.333V11.6667H26.6663V9.16667C26.6663 8.0616 26.2274 7.00179 25.446 6.22039C24.6646 5.43899 23.6047 5 22.4997 5H17.4997C16.3946 5 15.3348 5.43899 14.5534 6.22039C13.772 7.00179 13.333 8.0616 13.333 9.16667V11.6667H11.6663V35ZM16.6663 9.16667C16.6663 8.94565 16.7541 8.73369 16.9104 8.57741C17.0667 8.42113 17.2787 8.33333 17.4997 8.33333H22.4997C22.7207 8.33333 22.9327 8.42113 23.0889 8.57741C23.2452 8.73369 23.333 8.94565 23.333 9.16667V11.6667H16.6663V9.16667ZM31.6663 11.6667V35C32.9924 35 34.2642 34.4732 35.2019 33.5355C36.1396 32.5979 36.6663 31.3261 36.6663 30V16.6667C36.6663 15.3406 36.1396 14.0688 35.2019 13.1311C34.2642 12.1935 32.9924 11.6667 31.6663 11.6667ZM8.33301 11.6667C7.00693 11.6667 5.73516 12.1935 4.79747 13.1311C3.85979 14.0688 3.33301 15.3406 3.33301 16.6667V30C3.33301 31.3261 3.85979 32.5979 4.79747 33.5355C5.73516 34.4732 7.00693 35 8.33301 35V11.6667Z" fill="#181A18"/>
</svg>
