<svg width="20" height="20" viewBox="0 0 20 20" fill="none" xmlns="http://www.w3.org/2000/svg">
<path d="M14.9251 4.1665H4.92511L6.00845 3.0915C6.16537 2.93458 6.25352 2.72175 6.25352 2.49983C6.25352 2.27791 6.16537 2.06508 6.00845 1.90816C5.85153 1.75124 5.6387 1.66309 5.41678 1.66309C5.19486 1.66309 4.98203 1.75124 4.82511 1.90816L2.32511 4.40816C2.247 4.48563 2.18501 4.5778 2.1427 4.67935C2.1004 4.7809 2.07861 4.88982 2.07861 4.99983C2.07861 5.10984 2.1004 5.21876 2.1427 5.32031C2.18501 5.42186 2.247 5.51403 2.32511 5.5915L4.82511 8.0915C4.90258 8.1696 4.99475 8.2316 5.0963 8.2739C5.19785 8.31621 5.30677 8.33799 5.41678 8.33799C5.52679 8.33799 5.63571 8.31621 5.73726 8.2739C5.83881 8.2316 5.93098 8.1696 6.00845 8.0915C6.08655 8.01403 6.14855 7.92186 6.19085 7.82031C6.23316 7.71876 6.25494 7.60984 6.25494 7.49983C6.25494 7.38982 6.23316 7.2809 6.19085 7.17935C6.14855 7.0778 6.08655 6.98563 6.00845 6.90816L4.92511 5.83316H14.9251C15.0958 5.82985 15.2655 5.8602 15.4245 5.92249C15.5835 5.98477 15.7287 6.07777 15.8517 6.19617C15.9748 6.31457 16.0733 6.45606 16.1417 6.61254C16.21 6.76902 16.2469 6.93743 16.2501 7.10816V9.1665C16.2501 9.38751 16.3379 9.59947 16.4942 9.75575C16.6505 9.91203 16.8624 9.99983 17.0834 9.99983C17.3045 9.99983 17.5164 9.91203 17.6727 9.75575C17.829 9.59947 17.9168 9.38751 17.9168 9.1665V7.10816C17.9135 6.71857 17.8335 6.33344 17.6814 5.97475C17.5293 5.61607 17.308 5.29086 17.0302 5.0177C16.7524 4.74454 16.4235 4.52877 16.0623 4.38272C15.7011 4.23667 15.3147 4.1632 14.9251 4.1665ZM15.1751 11.9082C15.0182 11.7512 14.8054 11.6631 14.5834 11.6631C14.3615 11.6631 14.1487 11.7512 13.9918 11.9082C13.8349 12.0651 13.7467 12.2779 13.7467 12.4998C13.7467 12.7217 13.8349 12.9346 13.9918 13.0915L15.0751 14.1665H5.07511C4.90439 14.1698 4.73468 14.1395 4.57568 14.0772C4.41669 14.0149 4.27153 13.9219 4.14848 13.8035C4.02544 13.6851 3.92693 13.5436 3.85857 13.3871C3.79022 13.2306 3.75336 13.0622 3.75011 12.8915V10.8332C3.75011 10.6121 3.66231 10.4002 3.50603 10.2439C3.34975 10.0876 3.13779 9.99983 2.91678 9.99983C2.69576 9.99983 2.4838 10.0876 2.32752 10.2439C2.17124 10.4002 2.08345 10.6121 2.08345 10.8332V12.8915C2.08671 13.2811 2.16669 13.6662 2.31881 14.0249C2.47093 14.3836 2.6922 14.7088 2.97001 14.982C3.24781 15.2551 3.5767 15.4709 3.9379 15.6169C4.29909 15.763 4.68552 15.8365 5.07511 15.8332H15.0751L13.9918 16.9082C13.9137 16.9856 13.8517 17.0778 13.8094 17.1793C13.7671 17.2809 13.7453 17.3898 13.7453 17.4998C13.7453 17.6098 13.7671 17.7188 13.8094 17.8203C13.8517 17.9219 13.9137 18.014 13.9918 18.0915C14.0692 18.1696 14.1614 18.2316 14.263 18.2739C14.3645 18.3162 14.4734 18.338 14.5834 18.338C14.6935 18.338 14.8024 18.3162 14.9039 18.2739C15.0055 18.2316 15.0976 18.1696 15.1751 18.0915L17.6751 15.5915C17.7532 15.514 17.8152 15.4219 17.8575 15.3203C17.8998 15.2188 17.9216 15.1098 17.9216 14.9998C17.9216 14.8898 17.8998 14.7809 17.8575 14.6793C17.8152 14.5778 17.7532 14.4856 17.6751 14.4082L15.1751 11.9082Z" fill="black"/>
</svg>
