<svg width="32" height="32" viewBox="0 0 32 32" fill="none" xmlns="http://www.w3.org/2000/svg">
<path d="M10.7734 26.6671C12.745 26.733 14.7098 26.4031 16.5517 25.6968C18.3936 24.9905 20.0753 23.9221 21.4973 22.5548C22.9192 21.1875 24.0527 19.549 24.8307 17.7362C25.6087 15.9234 26.0154 13.973 26.0267 12.0004C26.9303 10.8823 27.6012 9.59482 28.0001 8.21372C28.0298 8.1046 28.0274 7.9892 27.9931 7.88142C27.9588 7.77363 27.8941 7.67806 27.8068 7.6062C27.7194 7.53435 27.6132 7.48928 27.5008 7.47642C27.3884 7.46356 27.2747 7.48346 27.1734 7.53372C26.7007 7.76126 26.1685 7.83475 25.6519 7.74386C25.1352 7.65296 24.66 7.40225 24.2934 7.02705C23.8253 6.51449 23.2591 6.10109 22.6284 5.81135C21.9976 5.52162 21.3151 5.36143 20.6213 5.3403C19.9275 5.31916 19.2365 5.4375 18.5893 5.6883C17.9421 5.9391 17.3518 6.31727 16.8534 6.80038C16.171 7.46126 15.6712 8.28744 15.4025 9.19862C15.1338 10.1098 15.1054 11.075 15.3201 12.0004C10.8534 12.2671 7.78672 10.1471 5.33339 7.24038C5.25969 7.15692 5.16327 7.09672 5.05593 7.06714C4.94858 7.03757 4.83494 7.03989 4.72889 7.07382C4.62284 7.10776 4.52896 7.17184 4.45873 7.25825C4.3885 7.34465 4.34494 7.44964 4.33339 7.56038C3.86601 10.1529 4.20316 12.8264 5.29955 15.2218C6.39593 17.6172 8.19905 19.6197 10.4667 20.9604C8.94624 22.7042 6.811 23.7933 4.50672 24.0004C4.38327 24.0209 4.26931 24.0794 4.18079 24.1679C4.09227 24.2563 4.03362 24.3702 4.01305 24.4937C3.99247 24.6171 4.01101 24.7439 4.06606 24.8563C4.12111 24.9686 4.20992 25.061 4.32006 25.1204C6.32475 26.1222 8.53236 26.6513 10.7734 26.6671Z" fill="#064749"/>
</svg>
