<svg width="16" height="16" viewBox="0 0 16 16" fill="none" xmlns="http://www.w3.org/2000/svg">
<path d="M12.834 7.33366C13.3008 7.33364 13.7501 7.51172 14.0902 7.83159C14.4302 8.15145 14.6355 8.58901 14.664 9.05499L14.6673 9.16699V13.5003C14.6673 13.627 14.6192 13.749 14.5327 13.8415C14.4462 13.9341 14.3278 13.9904 14.2014 13.999C14.075 14.0076 13.9501 13.968 13.8518 13.888C13.7535 13.8081 13.6893 13.6938 13.672 13.5683L13.6673 13.5003V12.0003H2.33398V13.5003C2.33398 13.6212 2.29022 13.7379 2.21081 13.8289C2.13139 13.92 2.02169 13.9792 1.90198 13.9957L1.83398 14.0003C1.71316 14.0003 1.59642 13.9566 1.50536 13.8771C1.4143 13.7977 1.35508 13.688 1.33865 13.5683L1.33398 13.5003V9.16699C1.33396 8.70013 1.51205 8.25085 1.83191 7.91079C2.15178 7.57073 2.58933 7.36551 3.05532 7.33699L3.16732 7.33366H12.834ZM4.50065 2.66699H11.5007C11.9675 2.66697 12.4168 2.84505 12.7569 3.16492C13.0969 3.48479 13.3021 3.92234 13.3307 4.38833L13.334 4.50033V6.66699H11.334L11.3293 6.58899C11.3118 6.44018 11.2446 6.30162 11.1386 6.19567C11.0327 6.08971 10.8941 6.02254 10.7453 6.00499L10.6673 6.00033H9.33399C9.1707 6.00035 9.01309 6.0603 8.89107 6.1688C8.76905 6.27731 8.69109 6.42682 8.67199 6.58899L8.66732 6.66699H7.33399L7.32932 6.58899C7.31177 6.44018 7.2446 6.30162 7.13864 6.19567C7.03269 6.08971 6.89413 6.02254 6.74532 6.00499L6.66732 6.00033H5.33398C5.1707 6.00035 5.01309 6.0603 4.89107 6.1688C4.76905 6.27731 4.69109 6.42682 4.67198 6.58899L4.66732 6.66699H2.66732V4.50033C2.66729 4.03347 2.84538 3.58419 3.16525 3.24413C3.48511 2.90407 3.92267 2.69885 4.38865 2.67033L4.50065 2.66699Z" fill="#181A18"/>
</svg>
