<svg width="32" height="32" viewBox="0 0 32 32" fill="none" xmlns="http://www.w3.org/2000/svg">
<path d="M25.3333 25.3333C25.3333 26.8133 24.1467 28 22.6667 28H9.33333C8.62609 28 7.94781 27.719 7.44772 27.219C6.94762 26.7189 6.66667 26.0406 6.66667 25.3333V16H4V13.3333H28V16H25.3333V25.3333ZM10.6667 2C9.48203 2 8.34592 2.47059 7.50826 3.30826C6.67059 4.14592 6.2 5.28203 6.2 6.46667C6.2 7.6513 6.67059 8.78741 7.50826 9.62508C8.34592 10.4627 9.48203 10.9333 10.6667 10.9333H12.7067C13.2267 10.9333 13.72 11.0667 14.1467 11.3333H16.84C16.0667 9.93333 14.48 9 12.7067 9H10.6667C9.33333 9 8.2 7.69333 8.2 6.33333C8.2 4.97333 9.33333 4 10.6667 4V2ZM17.1333 2.66667C17.1333 4 16 5.13333 14.6667 5.13333V7.13333C17.2267 7.13333 19.3333 8.93333 19.8533 11.3333H21.8933C21.7053 10.1552 21.2347 9.04018 20.5219 8.08354C19.809 7.1269 18.8751 6.35711 17.8 5.84C18.6267 5.02667 19.1333 3.90667 19.1333 2.66667H17.1333Z" fill="#181A18"/>
</svg>
