<svg width="17" height="14" viewBox="0 0 17 14" fill="none" xmlns="http://www.w3.org/2000/svg">
<path d="M8.49997 13.9688C8.38812 13.9694 8.27725 13.9487 8.1737 13.9078C8.07015 13.8669 7.97597 13.8067 7.89656 13.7305L1.29296 7.33755C0.46463 6.5283 0 5.43574 0 4.29719C0 3.15865 0.46463 2.06609 1.29296 1.25684C2.12777 0.451977 3.2586 0 4.43753 0C5.61646 0 6.74729 0.451977 7.5821 1.25684L8.49997 2.1443L9.41785 1.25684C10.2527 0.451977 11.3835 0 12.5624 0C13.7414 0 14.8722 0.451977 15.707 1.25684C16.5353 2.06609 16.9999 3.15865 16.9999 4.29719C16.9999 5.43574 16.5353 6.5283 15.707 7.33755L9.10339 13.7305C9.02398 13.8067 8.9298 13.8669 8.82625 13.9078C8.7227 13.9487 8.61183 13.9694 8.49997 13.9688Z" fill="white"/>
</svg>
