<svg width="20" height="20" viewBox="0 0 20 20" fill="none" xmlns="http://www.w3.org/2000/svg">
<path d="M15.8327 10.8337H5.94935L8.97435 14.467C9.04439 14.5513 9.09714 14.6485 9.1296 14.7531C9.16206 14.8578 9.17359 14.9678 9.16353 15.0769C9.14322 15.2973 9.0362 15.5005 8.86602 15.642C8.69584 15.7834 8.47644 15.8515 8.25608 15.8312C8.03572 15.8109 7.83247 15.7038 7.69102 15.5337L3.52435 10.5337C3.49632 10.4939 3.47125 10.4521 3.44935 10.4087C3.44935 10.367 3.40768 10.342 3.39102 10.3003C3.35324 10.2048 3.33347 10.1031 3.33268 10.0003C3.33347 9.89759 3.35324 9.79588 3.39102 9.70033C3.39102 9.65866 3.43268 9.63366 3.44935 9.59199C3.47125 9.54854 3.49632 9.50676 3.52435 9.46699L7.69102 4.46699C7.76937 4.37292 7.86749 4.29727 7.97839 4.24542C8.08929 4.19357 8.21026 4.16679 8.33268 4.16699C8.52739 4.16661 8.71609 4.23443 8.86602 4.35866C8.9504 4.42862 9.02015 4.51454 9.07128 4.61149C9.1224 4.70845 9.1539 4.81454 9.16396 4.92368C9.17403 5.03283 9.16246 5.14289 9.12992 5.24756C9.09738 5.35223 9.04452 5.44945 8.97435 5.53366L5.94935 9.16699H15.8327C16.0537 9.16699 16.2657 9.25479 16.4219 9.41107C16.5782 9.56735 16.666 9.77931 16.666 10.0003C16.666 10.2213 16.5782 10.4333 16.4219 10.5896C16.2657 10.7459 16.0537 10.8337 15.8327 10.8337Z" fill="white"/>
</svg>
