<svg width="20" height="20" viewBox="0 0 20 20" fill="none" xmlns="http://www.w3.org/2000/svg">
<path d="M12.3583 9.30866C12.9825 9.93475 13.3331 10.7828 13.3331 11.667C13.3331 12.5511 12.9825 13.3992 12.3583 14.0253C11.7322 14.6496 10.8841 15.0002 9.99992 15.0002C9.11576 15.0002 8.26768 14.6496 7.64158 14.0253L12.3583 9.30866ZM4.99992 1.66699H14.9999C15.4419 1.66699 15.8659 1.84259 16.1784 2.15515C16.491 2.46771 16.6666 2.89163 16.6666 3.33366V16.667C16.6666 17.109 16.491 17.5329 16.1784 17.8455C15.8659 18.1581 15.4419 18.3337 14.9999 18.3337H4.99992C4.55789 18.3337 4.13397 18.1581 3.82141 17.8455C3.50885 17.5329 3.33325 17.109 3.33325 16.667V3.33366C3.33325 2.89163 3.50885 2.46771 3.82141 2.15515C4.13397 1.84259 4.55789 1.66699 4.99992 1.66699ZM5.83325 3.33366C5.61224 3.33366 5.40028 3.42146 5.244 3.57774C5.08772 3.73402 4.99992 3.94598 4.99992 4.16699C4.99992 4.38801 5.08772 4.59997 5.244 4.75625C5.40028 4.91253 5.61224 5.00033 5.83325 5.00033C6.05427 5.00033 6.26623 4.91253 6.42251 4.75625C6.57879 4.59997 6.66658 4.38801 6.66658 4.16699C6.66658 3.94598 6.57879 3.73402 6.42251 3.57774C6.26623 3.42146 6.05427 3.33366 5.83325 3.33366ZM8.33325 3.33366C8.11224 3.33366 7.90028 3.42146 7.744 3.57774C7.58772 3.73402 7.49992 3.94598 7.49992 4.16699C7.49992 4.38801 7.58772 4.59997 7.744 4.75625C7.90028 4.91253 8.11224 5.00033 8.33325 5.00033C8.55427 5.00033 8.76623 4.91253 8.92251 4.75625C9.07879 4.59997 9.16658 4.38801 9.16658 4.16699C9.16658 3.94598 9.07879 3.73402 8.92251 3.57774C8.76623 3.42146 8.55427 3.33366 8.33325 3.33366ZM9.99992 6.66699C8.67384 6.66699 7.40207 7.19378 6.46438 8.13146C5.5267 9.06914 4.99992 10.3409 4.99992 11.667C4.99992 12.9931 5.5267 14.2648 6.46438 15.2025C7.40207 16.1402 8.67384 16.667 9.99992 16.667C11.326 16.667 12.5978 16.1402 13.5355 15.2025C14.4731 14.2648 14.9999 12.9931 14.9999 11.667C14.9999 10.3409 14.4731 9.06914 13.5355 8.13146C12.5978 7.19378 11.326 6.66699 9.99992 6.66699Z" fill="black"/>
</svg>
