<svg width="40" height="40" viewBox="0 0 40 40" fill="none" xmlns="http://www.w3.org/2000/svg">
<path d="M36.6663 19.9997C36.6663 10.7947 29.2047 3.33301 19.9997 3.33301C10.7947 3.33301 3.33301 10.7947 3.33301 19.9997C3.33301 29.2047 10.7947 36.6663 19.9997 36.6663C29.2047 36.6663 36.6663 29.2047 36.6663 19.9997ZM12.4997 14.573C13.078 13.9363 14.0247 13.333 15.4163 13.333C17.3363 13.333 18.573 14.653 19.008 16.1013C19.4297 17.513 19.1747 19.2597 17.9747 20.4647C17.5585 20.8648 17.117 21.2378 16.653 21.5813L16.5863 21.633C16.1197 21.993 15.703 22.3197 15.3363 22.683C14.9113 23.1097 14.563 23.5747 14.3613 24.1663H17.9163C18.2479 24.1663 18.5658 24.298 18.8002 24.5325C19.0346 24.7669 19.1663 25.0848 19.1663 25.4163C19.1663 25.7479 19.0346 26.0658 18.8002 26.3002C18.5658 26.5346 18.2479 26.6663 17.9163 26.6663H12.9163C12.5848 26.6663 12.2669 26.5346 12.0325 26.3002C11.798 26.0658 11.6663 25.7479 11.6663 25.4163C11.6663 23.338 12.5397 21.9447 13.573 20.9147C14.0663 20.4213 14.603 20.0063 15.0563 19.6547L15.0613 19.6513C15.538 19.283 15.908 18.9963 16.203 18.7013C16.6563 18.2447 16.8147 17.493 16.613 16.818C16.4213 16.183 15.9963 15.833 15.4163 15.833C14.828 15.833 14.5247 16.0613 14.3497 16.2547C14.2473 16.3677 14.164 16.4966 14.103 16.6363V16.6413C14.0009 16.9569 13.7776 17.2191 13.4822 17.37C13.1869 17.521 12.8436 17.5485 12.528 17.4463C12.2124 17.3442 11.9503 17.1209 11.7993 16.8256C11.6483 16.5302 11.6209 16.1869 11.723 15.8713L11.7813 15.7113C11.9526 15.2933 12.1951 14.9081 12.498 14.573H12.4997ZM22.083 13.333C22.4145 13.333 22.7325 13.4647 22.9669 13.6991C23.2013 13.9335 23.333 14.2515 23.333 14.583V19.1663H25.833V14.583C25.833 14.2515 25.9647 13.9335 26.1991 13.6991C26.4335 13.4647 26.7515 13.333 27.083 13.333C27.4145 13.333 27.7325 13.4647 27.9669 13.6991C28.2013 13.9335 28.333 14.2515 28.333 14.583V25.3663C28.333 25.6979 28.2013 26.0158 27.9669 26.2502C27.7325 26.4846 27.4145 26.6163 27.083 26.6163C26.7515 26.6163 26.4335 26.4846 26.1991 26.2502C25.9647 26.0158 25.833 25.6979 25.833 25.3663V21.6663H22.083C21.7515 21.6663 21.4335 21.5346 21.1991 21.3002C20.9647 21.0658 20.833 20.7479 20.833 20.4163V14.583C20.833 14.2515 20.9647 13.9335 21.1991 13.6991C21.4335 13.4647 21.7515 13.333 22.083 13.333Z" fill="#181A18"/>
</svg>
