<svg width="40" height="40" viewBox="0 0 40 40" fill="none" xmlns="http://www.w3.org/2000/svg">
<path d="M33.3333 21.9667H28.8333L25.7333 25.3L19.8 31.6667L17.45 34.2L16.6667 35H33.3333C33.7754 35 34.1993 34.8244 34.5118 34.5118C34.8244 34.1993 35 33.7754 35 33.3333V23.6333C35 23.1913 34.8244 22.7674 34.5118 22.4548C34.1993 22.1423 33.7754 21.9667 33.3333 21.9667ZM30.3167 15.5L23.4167 9.06667C23.2633 8.91199 23.0778 8.79298 22.8733 8.71809C22.6688 8.6432 22.4503 8.61426 22.2333 8.63333C22.0145 8.63861 21.7988 8.68695 21.5986 8.7756C21.3984 8.86425 21.2177 8.99147 21.0667 9.15L19.7 10.6333V28.4833C19.6841 28.8016 19.6507 29.1187 19.6 29.4333L30.4 17.85C30.6996 17.5268 30.859 17.0982 30.8434 16.6578C30.8278 16.2174 30.6384 15.8011 30.3167 15.5ZM18.0333 6.66667C18.0333 6.22464 17.8577 5.80072 17.5452 5.48816C17.2326 5.17559 16.8087 5 16.3667 5H6.66667C6.22464 5 5.80072 5.17559 5.48816 5.48816C5.17559 5.80072 5 6.22464 5 6.66667V28.4833C5 30.2117 5.68658 31.8692 6.90869 33.0913C8.1308 34.3134 9.78834 35 11.5167 35C13.245 35 14.9025 34.3134 16.1246 33.0913C17.3468 31.8692 18.0333 30.2117 18.0333 28.4833V6.66667ZM14.7 28.4833C14.7 29.3276 14.3646 30.1373 13.7676 30.7343C13.1706 31.3313 12.3609 31.6667 11.5167 31.6667C10.6724 31.6667 9.8627 31.3313 9.26571 30.7343C8.66872 30.1373 8.33333 29.3276 8.33333 28.4833V25H14.7V28.4833ZM14.7 21.6667H8.33333V16.6667H14.7V21.6667ZM14.7 13.3333H8.33333V8.33333H14.7V13.3333Z" fill="#181A18"/>
</svg>
