<svg width="20" height="20" viewBox="0 0 20 20" fill="none" xmlns="http://www.w3.org/2000/svg">
<path d="M14.9999 1.66699H4.99992C4.55789 1.66699 4.13397 1.84259 3.82141 2.15515C3.50885 2.46771 3.33325 2.89163 3.33325 3.33366V16.667C3.33325 17.109 3.50885 17.5329 3.82141 17.8455C4.13397 18.1581 4.55789 18.3337 4.99992 18.3337H14.9999C15.4419 18.3337 15.8659 18.1581 16.1784 17.8455C16.491 17.5329 16.6666 17.109 16.6666 16.667V3.33366C16.6666 2.89163 16.491 2.46771 16.1784 2.15515C15.8659 1.84259 15.4419 1.66699 14.9999 1.66699ZM8.33325 3.33366C8.55427 3.33366 8.76623 3.42146 8.92251 3.57774C9.07879 3.73402 9.16658 3.94598 9.16658 4.16699C9.16658 4.38801 9.07879 4.59997 8.92251 4.75625C8.76623 4.91253 8.55427 5.00033 8.33325 5.00033C8.11224 5.00033 7.90028 4.91253 7.744 4.75625C7.58772 4.59997 7.49992 4.38801 7.49992 4.16699C7.49992 3.94598 7.58772 3.73402 7.744 3.57774C7.90028 3.42146 8.11224 3.33366 8.33325 3.33366ZM5.83325 3.33366C6.05427 3.33366 6.26623 3.42146 6.42251 3.57774C6.57879 3.73402 6.66658 3.94598 6.66658 4.16699C6.66658 4.38801 6.57879 4.59997 6.42251 4.75625C6.26623 4.91253 6.05427 5.00033 5.83325 5.00033C5.61224 5.00033 5.40028 4.91253 5.244 4.75625C5.08772 4.59997 4.99992 4.38801 4.99992 4.16699C4.99992 3.94598 5.08772 3.73402 5.244 3.57774C5.40028 3.42146 5.61224 3.33366 5.83325 3.33366ZM14.9999 16.667H4.99992V6.66699H14.9999V16.667ZM12.2249 12.7753C12.2416 13.3587 12.0083 13.9253 11.5916 14.342C11.3826 14.5511 11.1345 14.717 10.8614 14.8302C10.5883 14.9434 10.2956 15.0017 9.99992 15.0017C9.70428 15.0017 9.41155 14.9434 9.13844 14.8302C8.86533 14.717 8.61721 14.5511 8.40825 14.342C7.99158 13.9253 7.75825 13.3587 7.77492 12.7753C7.83325 12.1837 8.02492 11.617 8.33325 11.1087C8.64158 10.417 9.00825 9.77533 9.44158 9.16699L9.99992 8.33366C11.4916 10.492 12.2249 11.967 12.2249 12.7753Z" fill="black"/>
</svg>
