<svg width="16" height="16" viewBox="0 0 16 16" fill="none" xmlns="http://www.w3.org/2000/svg">
<path d="M8.00065 13.3333C8.36884 13.3333 8.66732 13.0349 8.66732 12.6667C8.66732 12.2985 8.36884 12 8.00065 12C7.63246 12 7.33398 12.2985 7.33398 12.6667C7.33398 13.0349 7.63246 13.3333 8.00065 13.3333Z" fill="#181A18"/>
<path d="M8.00063 9.33338C7.13779 9.33335 6.30855 9.66792 5.6873 10.2667C5.56 10.3896 5.48672 10.558 5.4836 10.7349C5.48047 10.9118 5.54775 11.0827 5.67063 11.21C5.79352 11.3373 5.96194 11.4106 6.13885 11.4137C6.31576 11.4169 6.48666 11.3496 6.61397 11.2267C6.99257 10.88 7.48729 10.6878 8.00063 10.6878C8.51398 10.6878 9.0087 10.88 9.3873 11.2267C9.5146 11.3496 9.68551 11.4169 9.86242 11.4137C10.0393 11.4106 10.2078 11.3373 10.3306 11.21C10.4535 11.0827 10.5208 10.9118 10.5177 10.7349C10.5145 10.558 10.4413 10.3896 10.314 10.2667C9.69272 9.66792 8.86348 9.33335 8.00063 9.33338ZM8.00063 6.00004C7.19544 6.00057 6.39859 6.16316 5.65756 6.47813C4.91652 6.7931 4.24646 7.254 3.6873 7.83338C3.62646 7.89772 3.57888 7.97343 3.54729 8.05616C3.5157 8.1389 3.50072 8.22704 3.50319 8.31557C3.50567 8.40409 3.52556 8.49126 3.56172 8.5721C3.59789 8.65294 3.64962 8.72586 3.71397 8.78671C3.84392 8.90959 4.01737 8.97582 4.19616 8.97082C4.28468 8.96834 4.37185 8.94845 4.45269 8.91229C4.53353 8.87612 4.60646 8.82439 4.6673 8.76004C5.10263 8.30839 5.62454 7.94914 6.20185 7.70377C6.77916 7.45839 7.40001 7.33192 8.0273 7.33192C8.65459 7.33192 9.27545 7.45839 9.85276 7.70377C10.4301 7.94914 10.952 8.30839 11.3873 8.76004C11.449 8.82304 11.5227 8.87315 11.6039 8.90748C11.6852 8.94181 11.7724 8.95968 11.8606 8.96004C11.9909 8.95955 12.1182 8.92089 12.2267 8.84885C12.3353 8.77681 12.4204 8.67454 12.4714 8.55468C12.5225 8.43482 12.5373 8.30263 12.5141 8.17444C12.4908 8.04625 12.4305 7.92767 12.3406 7.83338C11.7784 7.25076 11.104 6.78798 10.3581 6.47291C9.61224 6.15783 8.81032 5.99698 8.00063 6.00004Z" fill="#181A18"/>
<path d="M14.4806 5.28704C12.7409 3.60875 10.4179 2.6709 8.00058 2.6709C5.5833 2.6709 3.2603 3.60875 1.52058 5.28704C1.40807 5.41214 1.34703 5.57516 1.34969 5.74339C1.35236 5.91162 1.41854 6.07262 1.53495 6.1941C1.65137 6.31557 1.80941 6.38854 1.97737 6.39836C2.14534 6.40818 2.3108 6.35412 2.44058 6.24704C3.93231 4.80512 5.92588 3.99911 8.00058 3.99911C10.0753 3.99911 12.0688 4.80512 13.5606 6.24704C13.6842 6.36616 13.8489 6.43302 14.0206 6.4337C14.1104 6.43336 14.1992 6.41488 14.2817 6.37936C14.3642 6.34385 14.4386 6.29204 14.5006 6.22704C14.6221 6.0995 14.6883 5.92905 14.6845 5.75291C14.6808 5.57677 14.6074 5.40928 14.4806 5.28704Z" fill="#181A18"/>
</svg>
