<svg width="20" height="20" viewBox="0 0 20 20" fill="none" xmlns="http://www.w3.org/2000/svg">
<path d="M13.733 9.01465L13.7311 9.01489H13.5734L13.5715 9.01465C13.4203 9.01465 13.2979 9.13705 13.2979 9.28825L13.2981 10.7119V10.7489H13.3053C13.3238 10.8816 13.4332 10.9855 13.5712 10.9855H13.7315V10.9853L13.7327 10.9855C13.8707 10.9855 13.9802 10.8816 13.9989 10.7487H14.0063V9.28801C14.0063 9.13681 13.8839 9.01465 13.733 9.01465Z" fill="black"/>
<path d="M14.7496 9.01465L14.7477 9.01489H14.5902L14.5883 9.01465C14.4371 9.01465 14.3147 9.13705 14.3147 9.28825H14.3145L14.3147 10.7489H14.3221C14.3406 10.8816 14.4501 10.9855 14.5881 10.9855H14.7484V10.9853L14.7496 10.9855C14.8876 10.9855 14.9973 10.8816 15.0157 10.7487H15.0232V9.28801C15.0231 9.21549 14.9943 9.14596 14.943 9.0947C14.8917 9.04344 14.8221 9.01465 14.7496 9.01465Z" fill="black"/>
<path d="M10 1C5.02912 1 1 5.03032 1 10.0005C1 14.9709 5.02912 19 10 19C14.9709 19 19 14.9709 19 10.0005C19 5.03032 14.9709 1 10 1ZM10 16.6146C6.35224 16.6146 3.3856 13.6478 3.3856 10.0005C3.38429 8.45293 3.92811 6.95438 4.9216 5.76784L8.16856 9.0148H5.25256L5.25064 9.01456C5.09944 9.01456 4.97704 9.13696 4.97704 9.28816L4.97728 9.28888H4.9768V10.7121C4.9768 10.8633 5.0992 10.9857 5.2504 10.9857H10.1392L14.2324 15.0789C13.0458 16.0721 11.5474 16.6159 10 16.6146ZM15.0786 14.2324L11.8319 10.9854H12.663C12.814 10.9854 12.9366 10.863 12.9366 10.7118V9.28888L12.9369 9.28792C12.9369 9.13672 12.8142 9.01432 12.6633 9.01432L12.6614 9.01456H9.86128L5.76784 4.92136C6.95421 3.9279 8.45261 3.38408 10 3.38536C13.6475 3.38536 16.6144 6.35344 16.6144 10.0002C16.6158 11.5476 16.072 13.046 15.0786 14.2324Z" fill="black"/>
</svg>
