<svg width="20" height="20" viewBox="0 0 20 20" fill="none" xmlns="http://www.w3.org/2000/svg">
<path d="M10.0003 1.66699C8.35215 1.66699 6.74099 2.15573 5.37058 3.07141C4.00017 3.98709 2.93206 5.28858 2.30133 6.8113C1.6706 8.33401 1.50558 10.0096 1.82712 11.6261C2.14866 13.2426 2.94234 14.7274 4.10777 15.8929C5.27321 17.0583 6.75807 17.852 8.37458 18.1735C9.99109 18.4951 11.6666 18.3301 13.1894 17.6993C14.7121 17.0686 16.0136 16.0005 16.9292 14.6301C17.8449 13.2597 18.3337 11.6485 18.3337 10.0003C18.3337 8.90598 18.1181 7.82234 17.6993 6.8113C17.2805 5.80025 16.6667 4.88159 15.8929 4.10777C15.1191 3.33395 14.2004 2.72012 13.1894 2.30133C12.1783 1.88254 11.0947 1.66699 10.0003 1.66699ZM10.0003 14.167C9.83551 14.167 9.67439 14.1181 9.53735 14.0266C9.40031 13.935 9.2935 13.8048 9.23043 13.6526C9.16736 13.5003 9.15085 13.3327 9.18301 13.1711C9.21516 13.0094 9.29453 12.8609 9.41107 12.7444C9.52762 12.6279 9.6761 12.5485 9.83775 12.5163C9.9994 12.4842 10.167 12.5007 10.3192 12.5638C10.4715 12.6268 10.6017 12.7336 10.6932 12.8707C10.7848 13.0077 10.8337 13.1688 10.8337 13.3337C10.8337 13.5547 10.7459 13.7666 10.5896 13.9229C10.4333 14.0792 10.2213 14.167 10.0003 14.167ZM10.8337 10.8337C10.8337 11.0547 10.7459 11.2666 10.5896 11.4229C10.4333 11.5792 10.2213 11.667 10.0003 11.667C9.77932 11.667 9.56735 11.5792 9.41107 11.4229C9.25479 11.2666 9.167 11.0547 9.167 10.8337V6.66699C9.167 6.44598 9.25479 6.23402 9.41107 6.07774C9.56735 5.92146 9.77932 5.83366 10.0003 5.83366C10.2213 5.83366 10.4333 5.92146 10.5896 6.07774C10.7459 6.23402 10.8337 6.44598 10.8337 6.66699V10.8337Z" fill="#181A18"/>
</svg>
