<svg width="32" height="33" viewBox="0 0 32 33" fill="none" xmlns="http://www.w3.org/2000/svg">
<rect y="0.859375" width="32" height="32" rx="10" fill="#F2F0F2"/>
<path d="M13.8601 22.9999C13.723 22.9995 13.5874 22.9708 13.4618 22.9158C13.3362 22.8607 13.2233 22.7804 13.1301 22.6799L8.27009 17.5099C8.08841 17.3163 7.99109 17.0585 7.99953 16.7931C8.00797 16.5277 8.12148 16.2766 8.31509 16.0949C8.50869 15.9132 8.76654 15.8159 9.03191 15.8244C9.29727 15.8328 9.54841 15.9463 9.73009 16.1399L13.8501 20.5299L22.2601 11.3299C22.3454 11.2236 22.4516 11.1359 22.5721 11.0722C22.6926 11.0084 22.8248 10.97 22.9607 10.9592C23.0966 10.9484 23.2332 10.9655 23.3622 11.0095C23.4912 11.0534 23.6099 11.1233 23.711 11.2148C23.812 11.3062 23.8933 11.4174 23.9498 11.5415C24.0063 11.6655 24.0369 11.7998 24.0396 11.936C24.0423 12.0723 24.0172 12.2077 23.9657 12.3339C23.9141 12.4601 23.8374 12.5745 23.7401 12.6699L14.6001 22.6699C14.5077 22.7723 14.3952 22.8544 14.2696 22.9112C14.144 22.968 14.0079 22.9982 13.8701 22.9999H13.8601Z" fill="#064749"/>
</svg>
