<svg width="32" height="32" viewBox="0 0 32 32" fill="none" xmlns="http://www.w3.org/2000/svg">
<path d="M28.0006 18.667V5.33366H4.00065V18.667H28.0006ZM28.0006 2.66699C28.7079 2.66699 29.3862 2.94794 29.8863 3.44804C30.3864 3.94814 30.6673 4.62642 30.6673 5.33366V21.3337C30.6673 22.0409 30.3864 22.7192 29.8863 23.2193C29.3862 23.7194 28.7079 24.0003 28.0006 24.0003H18.6673L21.334 28.0003V29.3337H10.6673V28.0003L13.334 24.0003H4.00065C3.29341 24.0003 2.61513 23.7194 2.11503 23.2193C1.61494 22.7192 1.33398 22.0409 1.33398 21.3337V5.33366C1.33398 3.85366 2.52065 2.66699 4.00065 2.66699H28.0006ZM5.33398 6.66699H20.0007V13.3337H5.33398V6.66699ZM21.334 6.66699H26.6673V9.33366H21.334V6.66699ZM26.6673 10.667V17.3337H21.334V10.667H26.6673ZM5.33398 14.667H12.0007V17.3337H5.33398V14.667ZM13.334 14.667H20.0007V17.3337H13.334V14.667Z" fill="#181A18"/>
</svg>
