<svg width="20" height="20" viewBox="0 0 20 20" fill="none" xmlns="http://www.w3.org/2000/svg">
<path d="M16.0417 9.16634C16.6253 9.16631 17.1869 9.38892 17.612 9.78875C18.0371 10.1886 18.2936 10.7355 18.3293 11.318L18.3334 11.458V16.8747C18.3334 17.033 18.2732 17.1855 18.1651 17.3012C18.057 17.4169 17.909 17.4872 17.751 17.498C17.593 17.5088 17.4368 17.4592 17.314 17.3593C17.1912 17.2594 17.1108 17.1165 17.0892 16.9597L17.0834 16.8747V14.9997H2.91675V16.8747C2.91674 17.0257 2.86205 17.1716 2.76278 17.2854C2.66351 17.3993 2.52638 17.4733 2.37675 17.4938L2.29175 17.4997C2.14072 17.4997 1.9948 17.445 1.88097 17.3457C1.76715 17.2464 1.69312 17.1093 1.67258 16.9597L1.66675 16.8747V11.458C1.66672 10.8744 1.88932 10.3128 2.28916 9.88776C2.68899 9.46268 3.23593 9.20616 3.81841 9.17051L3.95841 9.16634H16.0417ZM5.62508 3.33301H14.3751C14.9587 3.33298 15.5203 3.55558 15.9453 3.95542C16.3704 4.35525 16.6269 4.90219 16.6626 5.48467L16.6667 5.62467V8.33301H14.1667L14.1609 8.23551C14.139 8.04949 14.055 7.87629 13.9226 7.74385C13.7901 7.61141 13.6169 7.52744 13.4309 7.50551L13.3334 7.49967H11.6667C11.4626 7.4997 11.2656 7.57464 11.1131 7.71027C10.9606 7.8459 10.8631 8.0328 10.8392 8.23551L10.8334 8.33301H9.16675L9.16091 8.23551C9.13898 8.04949 9.05502 7.87629 8.92257 7.74385C8.79013 7.61141 8.61693 7.52744 8.43091 7.50551L8.33342 7.49967H6.66675C6.46264 7.4997 6.26563 7.57464 6.1131 7.71027C5.96058 7.8459 5.86313 8.0328 5.83925 8.23551L5.83342 8.33301H3.33341V5.62467C3.33339 5.0411 3.55599 4.4795 3.95583 4.05443C4.35566 3.62935 4.9026 3.37283 5.48508 3.33717L5.62508 3.33301Z" fill="#181A18"/>
</svg>
