<svg width="40" height="40" viewBox="0 0 40 40" fill="none" xmlns="http://www.w3.org/2000/svg">
<path d="M20 22.5C21.3807 22.5 22.5 21.3807 22.5 20C22.5 18.6193 21.3807 17.5 20 17.5C18.6193 17.5 17.5 18.6193 17.5 20C17.5 21.3807 18.6193 22.5 20 22.5Z" fill="#181A18"/>
<path d="M36.4504 19.1666C35.3838 17.3166 29.5171 8.03328 19.5504 8.33328C10.3338 8.56662 5.00044 16.6666 3.55044 19.1666C3.40416 19.42 3.32715 19.7074 3.32715 19.9999C3.32715 20.2925 3.40416 20.5799 3.55044 20.8333C4.60044 22.6499 10.2171 31.6666 20.0338 31.6666H20.4504C29.6671 31.4333 35.0171 23.3333 36.4504 20.8333C36.5967 20.5799 36.6737 20.2925 36.6737 19.9999C36.6737 19.7074 36.5967 19.42 36.4504 19.1666ZM20.0004 25.8333C18.8467 25.8333 17.7189 25.4912 16.7596 24.8502C15.8003 24.2092 15.0527 23.2982 14.6111 22.2323C14.1696 21.1664 14.0541 19.9935 14.2792 18.8619C14.5043 17.7304 15.0598 16.691 15.8757 15.8752C16.6915 15.0594 17.7309 14.5038 18.8624 14.2787C19.994 14.0536 21.1669 14.1691 22.2328 14.6107C23.2987 15.0522 24.2097 15.7998 24.8507 16.7591C25.4917 17.7184 25.8338 18.8462 25.8338 19.9999C25.8338 21.547 25.2192 23.0308 24.1252 24.1247C23.0313 25.2187 21.5475 25.8333 20.0004 25.8333Z" fill="#181A18"/>
</svg>
