<svg width="32" height="32" viewBox="0 0 32 32" fill="none" xmlns="http://www.w3.org/2000/svg">
<path d="M28.0006 22.6667H4.00065V6.66667H28.0006V22.6667ZM28.0006 4H4.00065C3.29341 4 2.61513 4.28095 2.11503 4.78105C1.61494 5.28115 1.33398 5.95942 1.33398 6.66667V22.6667C1.33398 23.3739 1.61494 24.0522 2.11503 24.5523C2.61513 25.0524 3.29341 25.3333 4.00065 25.3333H10.6673V28H21.334V25.3333H28.0006C28.7079 25.3333 29.3862 25.0524 29.8863 24.5523C30.3864 24.0522 30.6673 23.3739 30.6673 22.6667V6.66667C30.6673 5.95942 30.3864 5.28115 29.8863 4.78105C29.3862 4.28095 28.7079 4 28.0006 4Z" fill="#181A18"/>
</svg>
