<svg width="32" height="32" viewBox="0 0 32 32" fill="none" xmlns="http://www.w3.org/2000/svg">
<path d="M29.3327 29.3333H2.66602V26.6667H29.3327V29.3333ZM29.3327 8H2.66602V4H29.3327V8ZM26.666 9.33333V25.3333H22.666V14.6667C22.666 14.6667 19.3327 13.3333 15.9993 13.3333C12.666 13.3333 9.33268 14.6667 9.33268 14.6667V25.3333H5.33268V9.33333H26.666ZM19.3327 19.56H19.2927L19.746 20.2933L19.826 20.4533C20.386 21.8 19.9993 23.3333 18.946 24.32C17.9993 25.2 16.666 25.4267 15.4393 25.2667C14.2793 25.12 13.1993 24.3867 12.5993 23.3733C12.3993 23.0667 12.2527 22.7067 12.1727 22.36L11.9993 21.48C11.946 20.2 12.4527 18.8533 13.4127 18.0533C12.9727 19.0133 13.0793 20.2133 13.7327 21.0533L13.8127 21.16C13.9193 21.2533 14.066 21.2933 14.186 21.2267C14.306 21.1867 14.3993 21.0667 14.3993 20.9333L14.346 20.7467C13.6393 18.8933 14.2393 16.7333 15.7193 15.5067C16.1327 15.1733 16.666 14.8667 17.1593 14.7333C16.6127 15.8267 16.8127 17.24 17.666 18.0933L18.8527 19.0667L19.3327 19.56ZM17.4793 23.2533C17.826 22.9333 18.0393 22.4 17.9993 21.92V21.6667C17.8393 20.8667 17.1327 20.6133 16.666 20L16.346 19.4C16.1727 19.8 16.1593 20.1733 16.226 20.6133C16.306 21.0667 16.4927 21.4533 16.386 21.92C16.266 22.44 15.866 22.96 15.1593 23.1333C15.5593 23.52 16.1993 23.8267 16.8527 23.6133L17.4793 23.2533Z" fill="#181A18"/>
</svg>
