<svg width="20" height="20" viewBox="0 0 20 20" fill="none" xmlns="http://www.w3.org/2000/svg">
<path d="M15.8332 4.1665H4.1665C3.50346 4.1665 2.86758 4.4299 2.39874 4.89874C1.9299 5.36758 1.6665 6.00346 1.6665 6.6665V13.3332C1.6665 13.9962 1.9299 14.6321 2.39874 15.1009C2.86758 15.5698 3.50346 15.8332 4.1665 15.8332H15.8332C16.4962 15.8332 17.1321 15.5698 17.6009 15.1009C18.0698 14.6321 18.3332 13.9962 18.3332 13.3332V6.6665C18.3332 6.00346 18.0698 5.36758 17.6009 4.89874C17.1321 4.4299 16.4962 4.1665 15.8332 4.1665ZM9.1665 12.4998H5.83317C5.61216 12.4998 5.4002 12.412 5.24392 12.2558C5.08764 12.0995 4.99984 11.8875 4.99984 11.6665C4.99984 11.4455 5.08764 11.2335 5.24392 11.0772C5.4002 10.921 5.61216 10.8332 5.83317 10.8332H9.1665C9.38752 10.8332 9.59948 10.921 9.75576 11.0772C9.91204 11.2335 9.99984 11.4455 9.99984 11.6665C9.99984 11.8875 9.91204 12.0995 9.75576 12.2558C9.59948 12.412 9.38752 12.4998 9.1665 12.4998ZM14.1665 12.4998H12.4998C12.2788 12.4998 12.0669 12.412 11.9106 12.2558C11.7543 12.0995 11.6665 11.8875 11.6665 11.6665C11.6665 11.4455 11.7543 11.2335 11.9106 11.0772C12.0669 10.921 12.2788 10.8332 12.4998 10.8332H14.1665C14.3875 10.8332 14.5995 10.921 14.7558 11.0772C14.912 11.2335 14.9998 11.4455 14.9998 11.6665C14.9998 11.8875 14.912 12.0995 14.7558 12.2558C14.5995 12.412 14.3875 12.4998 14.1665 12.4998ZM16.6665 7.49984H3.33317V6.6665C3.33317 6.44549 3.42097 6.23353 3.57725 6.07725C3.73353 5.92097 3.94549 5.83317 4.1665 5.83317H15.8332C16.0542 5.83317 16.2661 5.92097 16.4224 6.07725C16.5787 6.23353 16.6665 6.44549 16.6665 6.6665V7.49984Z" fill="black"/>
</svg>
